<?xml version="1.0" encoding="UTF-8" standalone="no"?>
<!DOCTYPE svg PUBLIC "-//W3C//DTD SVG 1.1//EN" "http://www.w3.org/Graphics/SVG/1.1/DTD/svg11.dtd">
<svg width="100%" height="100%" viewBox="0 0 50 50" version="1.1" xmlns="http://www.w3.org/2000/svg" xmlns:xlink="http://www.w3.org/1999/xlink" xml:space="preserve" xmlns:serif="http://www.serif.com/" style="fill-rule:evenodd;clip-rule:evenodd;stroke-linejoin:round;stroke-miterlimit:2;">
    <g transform="matrix(0.133522,0,0,0.133522,28.283,23.0468)">
        <path d="M0,0C10.965,5.893 17.356,16.035 23.953,26.188C26.821,30.578 29.978,34.702 33.309,38.75C34.069,39.718 34.83,40.686 35.613,41.684C38.255,44.844 41.317,47.313 44.621,49.75C45.194,50.183 45.768,50.616 46.358,51.062C48.772,52.881 51.203,54.674 53.652,56.445C66.166,65.533 74.186,76.383 77.309,91.75C78.965,106.823 74.281,119.273 65.449,131.277C58.02,139.859 46.666,146.498 35.309,147.75C13.414,149.149 -3.665,142.733 -20.824,129.34C-23.596,127.489 -23.596,127.489 -26.785,127.813C-29.794,128.783 -31.601,129.859 -34.066,131.813C-50.027,143.477 -67.866,149.772 -87.691,147.75C-96.162,146.196 -102.921,143.004 -109.691,137.75C-111.238,136.636 -111.238,136.636 -112.816,135.5C-121.631,127.068 -127.453,116.292 -127.93,104.055C-128.282,86.886 -125.108,75.55 -113.129,62.75C-109.041,58.806 -104.47,55.638 -99.835,52.384C-88.212,44.222 -80.319,34.359 -72.566,22.563C-63.688,9.103 -55.362,0.6 -39.691,-4.25C-27.203,-8.413 -11.535,-5.357 0,0Z" style="fill:rgb(249,249,249);fill-rule:nonzero;"/>
    </g>
    <g transform="matrix(0.133522,0,0,0.133522,30.3172,22.4882)">
        <path d="M0,0C6.167,5.208 10.586,11.504 14.957,18.222C16.83,21.091 18.762,23.919 20.699,26.746C21.372,27.743 22.045,28.739 22.738,29.766C28.331,37.351 34.283,42.899 41.949,48.371C57.405,59.748 67.47,71.251 73.074,89.934C73.265,90.543 73.456,91.153 73.652,91.781C76.884,108.269 71.529,124.895 63.074,138.934C54.989,150.598 42.418,157.841 29.074,161.934C28.28,162.179 27.486,162.423 26.668,162.676C6.356,167.754 -13.353,161.738 -31.158,152.023C-33.088,150.833 -34.797,149.471 -36.57,148.059C-39.638,145.587 -39.638,145.587 -42.469,146.387C-43.28,146.897 -44.09,147.408 -44.926,147.934C-45.912,148.506 -46.898,149.078 -47.914,149.668C-49.011,150.333 -50.108,150.998 -51.238,151.684C-56.428,154.737 -61.656,157.212 -67.301,159.309C-68.262,159.666 -68.262,159.666 -69.243,160.03C-86.266,166.115 -104.318,165.979 -120.977,158.578C-134.769,151.463 -144.938,141.359 -150.926,126.934C-151.319,126.051 -151.712,125.168 -152.117,124.258C-156.84,111.834 -157.435,95.218 -152.863,82.684C-151.938,80.74 -150.959,78.822 -149.926,76.934C-149.429,75.926 -148.933,74.918 -148.422,73.879C-141.323,60.434 -130.082,52.359 -117.926,43.934C-108.418,37.122 -102.018,26.705 -95.676,17.059C-85.957,2.334 -73.251,-8.565 -55.594,-12.563C-35.323,-15.347 -16.81,-11.872 0,0ZM-80.161,15.712C-83.063,19.365 -85.611,23.228 -88.176,27.121C-97.679,41.145 -106.657,50.842 -120.512,60.723C-131.406,68.54 -139.988,78.532 -142.926,91.934C-143.219,95.376 -143.251,98.793 -143.238,102.246C-143.254,103.132 -143.271,104.019 -143.287,104.932C-143.296,117.233 -138.699,128.206 -130.52,137.434C-118.301,148.934 -105.457,152.663 -89.113,152.332C-73.728,151.524 -58.255,143.452 -46.281,134.094C-42.926,131.934 -42.926,131.934 -40.414,131.832C-37.015,133.337 -34.112,135.395 -31.113,137.559C-14.459,149.101 3.054,154.389 23.297,151.469C36.395,148.284 46.982,140.819 54.434,129.727C61.298,118.041 64.051,105.92 61.391,92.48C56.494,75.332 45.444,64.552 31.016,54.91C20.339,47.736 13.675,37.888 6.574,27.371C-2.555,13.917 -10.828,4.199 -27.035,-0.371C-47.09,-3.955 -66.526,-0.322 -80.161,15.712Z" style="fill:rgb(7,7,7);fill-rule:nonzero;"/>
    </g>
    <g transform="matrix(0.133522,0,0,0.133522,19.1363,7.1243)">
        <path d="M0,0C11.099,6.34 17.588,16.678 20.992,28.879C21.997,33.239 22.118,37.478 22.063,41.938C22.051,43.13 22.051,43.13 22.04,44.346C21.94,49.793 21.629,54.825 19.813,60C19.483,60.963 19.153,61.926 18.813,62.918C15.064,72.843 9.735,79.338 0.813,85C-5.288,87.034 -12.791,87.316 -18.828,84.977C-21.181,83.488 -23.149,81.896 -25.188,80C-25.885,79.37 -26.582,78.739 -27.301,78.09C-38.583,66.722 -40.534,52.501 -40.57,37.23C-40.379,24.03 -36.225,13.868 -27.188,4C-19.153,-2.456 -9.601,-4.429 0,0Z" style="fill:rgb(250,250,250);fill-rule:nonzero;"/>
    </g>
    <g transform="matrix(0.133522,0,0,0.133522,33.5467,7.22235)">
        <path d="M0,0C10.147,6.806 15.736,17.552 18.348,29.348C18.646,31.329 18.792,33.264 18.887,35.266C18.95,36.049 19.013,36.833 19.078,37.641C19.699,51.091 15.456,65.058 7.039,75.574C0.78,82.356 -5.383,85.396 -14.613,85.891C-23.224,85.59 -28.082,81.595 -33.863,75.578C-43.589,63.709 -45.084,49.097 -44.113,34.266C-42.483,22.246 -36.866,9.813 -27.113,2.266C-18.688,-3.499 -9.161,-5.008 0,0Z" style="fill:rgb(249,249,249);fill-rule:nonzero;"/>
    </g>
    <g transform="matrix(0.133522,0,0,0.133522,9.10546,17.8645)">
        <path d="M0,0C12.65,7.013 19.442,18.075 23.938,31.563C24.805,41.903 25.579,53.469 19.938,62.563C19.401,63.491 18.865,64.419 18.313,65.375C13.408,69.892 7.656,72.817 0.938,73.188C-8.216,72.657 -15.968,67.09 -22.063,60.563C-31.851,48.395 -35.364,33.955 -34.063,18.563C-32.313,11.068 -28.504,4.788 -22.25,0.246C-14.73,-4.105 -7.744,-3.532 0,0Z" style="fill:rgb(249,249,249);fill-rule:nonzero;"/>
    </g>
    <g transform="matrix(0.133522,0,0,0.133522,20.3964,6.0144)">
        <path d="M0,0C13.016,9.343 20.236,21.883 23.625,37.438C26.351,54.627 24.262,72.852 14.813,87.781C8.194,96.729 0.557,104.071 -10.625,106.313C-24.806,107.596 -33.61,104.622 -44.504,95.789C-55.028,86.136 -60.998,71.104 -61.75,56.972C-62.298,38.583 -60.836,22.433 -48.25,7.938C-34.745,-6.155 -17.572,-11.005 0,0ZM-40.504,16.723C-41.059,17.598 -41.615,18.473 -42.188,19.375C-42.746,20.232 -43.304,21.089 -43.879,21.973C-48.432,30.681 -50.307,38.371 -50.125,48.188C-50.113,49.239 -50.101,50.29 -50.088,51.374C-49.738,65.106 -45.786,77.029 -36.188,87.188C-29.205,93.58 -24.518,95.01 -14.996,94.688C-7.416,93.844 -2.631,90.1 2.551,84.664C5.7,80.605 7.538,76.076 9.375,71.313C9.728,70.522 10.081,69.732 10.445,68.918C14.874,56.506 13.53,40.175 8.375,28.313C3.943,19.121 -2.431,10.711 -12.203,6.938C-23.328,4.066 -33.429,7.647 -40.504,16.723Z" style="fill:rgb(7,7,7);fill-rule:nonzero;"/>
    </g>
    <g transform="matrix(0.133522,0,0,0.133522,34.2399,5.82768)">
        <path d="M0,0C12.401,7.808 19.649,18.682 23.695,32.711C24.937,38.268 24.879,43.795 24.883,49.461C24.895,50.399 24.907,51.338 24.92,52.305C24.951,67.159 20.637,80.78 11.695,92.711C11.097,93.598 10.499,94.485 9.883,95.398C6.585,98.884 2.804,101.268 -1.305,103.711C-1.972,104.13 -2.64,104.549 -3.328,104.98C-10.909,109.09 -20.479,108.816 -28.797,107.238C-30.795,106.568 -32.48,105.765 -34.305,104.711C-35.028,104.309 -35.751,103.907 -36.496,103.492C-48.301,96.302 -55.487,85.105 -59.406,72.039C-63.964,51.848 -61.307,32.354 -50.305,14.711C-38.525,-1.763 -18.741,-10.482 0,0ZM-39.305,19.711C-48.726,34.249 -51.678,49.389 -48.117,66.523C-45.188,77.602 -39.66,87.525 -30.117,94.273C-24.283,97.17 -16.906,96.591 -10.746,95.086C-0.667,91.173 4.9,82.912 9.219,73.367C14.279,60.838 15.054,48.741 11.695,35.711C11.512,34.972 11.329,34.234 11.141,33.473C7.879,22.137 1.391,14.167 -8.68,8.336C-21.36,5.317 -31.102,9.99 -39.305,19.711Z" style="fill:rgb(7,7,7);fill-rule:nonzero;"/>
    </g>
    <g transform="matrix(0.133522,0,0,0.133522,44.5242,16.6424)">
        <path d="M0,0C8.72,5.974 14.437,16.335 16.422,26.59C16.527,27.963 16.609,29.339 16.672,30.715C16.735,31.49 16.798,32.264 16.863,33.063C17.634,49.551 11.435,65.898 0.867,78.395C-8.088,87.859 -18.331,93.657 -31.516,94.027C-41.259,93.871 -48.093,90.002 -55.063,83.34C-64.985,71.844 -66.196,58.217 -65.328,43.715C-63.379,28.219 -54.754,13.626 -42.922,3.695C-29.322,-6.526 -15.098,-8.334 0,0ZM-45.266,23.508C-52.682,35.452 -55.332,47.679 -52.789,61.684C-50.456,70.194 -46.087,76.307 -38.453,80.824C-33.172,83.038 -27.493,82.472 -22.188,80.617C-9.802,74.783 -3.345,66.096 2,53.613C5.504,43.67 6.696,32.242 3.047,22.152C-0.376,15.056 -4.517,10.233 -11.984,7.383C-25.668,3.483 -37.754,12.679 -45.266,23.508Z" style="fill:rgb(7,7,7);fill-rule:nonzero;"/>
    </g>
    <g transform="matrix(0.133522,0,0,0.133522,9.87738,16.4286)">
        <path d="M0,0C15.17,9.261 24.68,22.702 29.567,39.688C30.54,44.029 30.645,48.257 30.594,52.691C30.586,53.608 30.579,54.525 30.571,55.47C30.28,67.48 26.618,77.565 18.238,86.32C10.567,93.428 2.491,95.749 -7.887,95.582C-20.133,94.482 -30.424,86.683 -38.219,77.566C-48,64.376 -53.546,46.742 -51.844,30.316C-50.141,19.307 -45.229,9.406 -36.219,2.691C-25.956,-4.278 -11.377,-5.591 0,0ZM-34.523,17.293C-40.683,26.734 -41.4,36.862 -39.113,47.816C-34.925,62.312 -28.434,73.654 -15.043,81.223C-9.271,84.093 -3.335,84.364 2.824,82.516C10.414,79.174 14.095,74.159 17.285,66.664C20.068,55.969 19.643,42.699 14.641,32.82C13.906,31.581 13.906,31.581 13.156,30.316C12.687,29.5 12.218,28.684 11.734,27.844C5.852,18.372 -1.245,12.147 -11.844,8.316C-21.118,6.568 -28.815,9.901 -34.523,17.293Z" style="fill:rgb(7,7,7);fill-rule:nonzero;"/>
    </g>
</svg>
