<?xml version="1.0" encoding="UTF-8" standalone="no"?>
<!DOCTYPE svg PUBLIC "-//W3C//DTD SVG 1.1//EN" "http://www.w3.org/Graphics/SVG/1.1/DTD/svg11.dtd">
<svg width="100%" height="100%" viewBox="0 0 50 50" version="1.1" xmlns="http://www.w3.org/2000/svg" xmlns:xlink="http://www.w3.org/1999/xlink" xml:space="preserve" xmlns:serif="http://www.serif.com/" style="fill-rule:evenodd;clip-rule:evenodd;stroke-linejoin:round;stroke-miterlimit:2;">
    <g transform="matrix(0.368584,0,0,0.368584,38.773,38.9589)">
        <g transform="matrix(0.478652,0,0,0.478652,-38.5152,-93.4527)">
            <path d="M0,0C2.199,0.003 4.396,-0.02 6.594,-0.046C20.115,-0.109 33.058,1.612 45.598,6.941C46.851,7.461 46.851,7.461 48.13,7.992C61.929,13.87 73.618,21.102 84.598,31.316C85.481,32.117 86.364,32.919 87.274,33.745C107.522,52.955 120.871,81.896 121.985,109.73C122.357,123.905 122.037,137.73 117.598,151.316C117.285,152.312 117.285,152.312 116.965,153.328C111.97,168.854 104.56,183.187 93.598,195.316C92.89,196.154 92.183,196.991 91.454,197.855C73.797,218.406 46.823,233.759 19.598,236.316C2.796,237.318 -14.258,237.622 -30.402,232.316C-31.404,232.002 -31.404,232.002 -32.426,231.682C-59.248,223.136 -80.969,205.657 -96.402,182.316C-97.03,181.384 -97.657,180.452 -98.304,179.491C-114.05,154.462 -119.282,121.323 -112.777,92.503C-112.077,89.741 -111.272,87.029 -110.402,84.316C-110.088,83.307 -110.088,83.307 -109.769,82.278C-99.549,50.228 -77.058,26.12 -47.591,10.731C-40.103,6.979 -32.537,4.318 -24.402,2.316C-23.708,2.132 -23.014,1.949 -22.299,1.76C-14.917,0.012 -7.542,-0.022 0,0Z" style="fill:rgb(2,2,2);fill-rule:nonzero;"/>
        </g>
        <g transform="matrix(0.478652,0,0,0.478652,-23.3907,-86.6005)">
            <path d="M0,0C15.288,3.606 28.771,11.366 41,21C42.228,21.951 42.228,21.951 43.48,22.922C59.434,36.137 69.852,55.515 76,75C76.34,76.045 76.681,77.091 77.031,78.168C84.443,105.792 77.874,135.314 63.938,159.563C60.931,164.291 57.581,168.694 54,173C53.355,173.791 52.711,174.583 52.047,175.398C35.56,194.756 10.443,208.517 -15,211C-19.272,211.184 -23.537,211.231 -27.813,211.25C-29.5,211.281 -29.5,211.281 -31.221,211.313C-46.568,211.384 -57.752,205.604 -68.934,195.223C-79.892,183.436 -83.555,169.101 -83.273,153.43C-82.799,142.485 -78.316,133.735 -72,125C-71.278,123.969 -70.556,122.938 -69.813,121.875C-61.041,111.917 -48.371,104.852 -35.09,103.857C-32.894,103.726 -30.697,103.61 -28.5,103.5C-13.255,102.727 0.438,98.506 12,88C24.426,73.84 28.08,60.781 27.187,42.278C26.1,29.008 18.539,16.62 8.965,7.652C6.097,5.241 3.086,3.122 0,1L0,0Z" style="fill:rgb(250,250,249);fill-rule:nonzero;"/>
        </g>
        <g transform="matrix(0.478652,0,0,0.478652,-32.9039,-18.4225)">
            <path d="M0,0C4.811,2.71 7.699,6.533 9.875,11.563C11.177,17.174 10.333,21.49 7.438,26.438C4.038,30.967 0.309,33.125 -5.125,34.563C-10.066,35.244 -13.243,34.532 -17.488,31.832C-21.614,28.632 -24.758,24.658 -26.125,19.563C-26.793,13.662 -25.559,9.325 -22.125,4.563C-15.758,-1.298 -8.198,-3.462 0,0Z" style="fill:rgb(7,7,7);fill-rule:nonzero;"/>
        </g>
        <g transform="matrix(0.478652,0,0,0.478652,-34.3473,-71.4295)">
            <path d="M0,0C5.483,2.453 9.172,5.867 11.891,11.305C12.418,17.516 12.635,23.063 8.891,28.305C4.49,32.717 0.797,34.454 -5.422,34.617C-10.484,34.564 -13.254,33.783 -17.109,30.305C-21.493,25.555 -23.738,21.093 -23.551,14.492C-22.525,9.408 -19.295,5.205 -15.434,1.848C-10.49,-1.369 -5.467,-1.802 0,0Z" style="fill:rgb(246,246,246);fill-rule:nonzero;"/>
        </g>
        <g transform="matrix(0.478652,0,0,0.478652,-23.3907,-86.6005)">
            <path d="M0,0C5.857,1.662 11.459,3.47 17,6C16.67,7.32 16.34,8.64 16,10L14,10C13.67,10.66 13.34,11.32 13,12C11.395,10.564 9.791,9.126 8.188,7.688C7.294,6.887 6.401,6.086 5.48,5.262C3.601,3.548 1.774,1.821 0,0Z" style="fill:rgb(238,238,238);fill-rule:nonzero;"/>
        </g>
        <g transform="matrix(0.478652,0,0,0.478652,-23.3907,-86.6005)">
            <path d="M0,0C1.65,0.422 3.295,0.863 4.938,1.313C6.312,1.678 6.312,1.678 7.715,2.051C8.469,2.364 9.223,2.677 10,3C10.33,3.99 10.66,4.98 11,6C10.34,6.66 9.68,7.32 9,8C7.497,6.858 5.998,5.711 4.5,4.563C3.665,3.924 2.829,3.286 1.969,2.629C1.319,2.091 0.669,1.554 0,1L0,0Z" style="fill:rgb(229,229,229);fill-rule:nonzero;"/>
        </g>
    </g>
</svg>
