<?xml version="1.0" encoding="UTF-8" standalone="no"?>
<!DOCTYPE svg PUBLIC "-//W3C//DTD SVG 1.1//EN" "http://www.w3.org/Graphics/SVG/1.1/DTD/svg11.dtd">
<svg width="100%" height="100%" viewBox="0 0 50 50" version="1.1" xmlns="http://www.w3.org/2000/svg" xmlns:xlink="http://www.w3.org/1999/xlink" xml:space="preserve" xmlns:serif="http://www.serif.com/" style="fill-rule:evenodd;clip-rule:evenodd;stroke-linejoin:round;stroke-miterlimit:2;">
    <g transform="matrix(0.119623,0,0,0.119623,22.0725,24.0971)">
        <g transform="matrix(1,0,0,1,71.026,-132.239)">
            <path d="M0,0C7.486,4.522 13.814,9.988 17.5,18L17.5,20C18.106,19.954 18.712,19.907 19.336,19.859C30.355,19.385 37.223,23.186 45.273,30.488C50.555,36.446 51.874,40.745 52.125,48.438C52.542,54.454 52.542,54.454 55.633,59.461C57.381,60.697 59.152,61.901 60.945,63.07C65.649,66.623 67.807,71.454 69.5,77C70.147,82.776 70.132,88.39 68.5,94C69.241,94.246 69.982,94.492 70.746,94.746C77.398,97.775 82.245,104.934 84.883,111.609C86.359,117.328 86.212,123.246 84.438,128.875C82.976,133.747 84.418,137.003 86.563,141.438C89.577,148.924 89.899,156.566 87.465,164.281C84.279,171.31 79.904,176.645 73.5,181L71.5,181C71.995,186.445 71.995,186.445 72.5,192L84.5,192C85.16,190.68 85.82,189.36 86.5,188C87.16,187.34 87.82,186.68 88.5,186C93.955,186.455 93.955,186.455 96.5,189C96.974,192.633 96.959,194.354 94.813,197.375C92.078,199.297 90.774,199.517 87.5,199C86.84,198.34 86.18,197.68 85.5,197C82.378,196.535 82.378,196.535 78.875,196.375C77.686,196.3 76.498,196.225 75.273,196.148C73.901,196.075 73.901,196.075 72.5,196C72.17,199.63 71.84,203.26 71.5,207L73.5,207C74.16,207.99 74.82,208.98 75.5,210C77.464,210.577 77.464,210.577 79.625,210.688C81.543,210.842 81.543,210.842 83.5,211C83.789,210.361 84.078,209.721 84.375,209.063C85.5,207 85.5,207 87.5,206C91.082,205.611 92.863,205.564 95.875,207.625C97.987,210.712 98.112,212.328 97.5,216C96.841,216.586 96.181,217.172 95.502,217.775C92.804,220.773 92.984,222.604 92.969,226.594C92.964,227.871 92.958,229.149 92.953,230.465C92.962,231.127 92.97,231.79 92.979,232.472C93,234.494 92.979,236.513 92.953,238.535C92.961,240.451 92.961,240.451 92.969,242.406C92.976,244.159 92.976,244.159 92.982,245.947C93.601,249.597 94.798,250.594 97.5,253C97.429,255.895 96.887,257.439 95.25,259.813C92.808,261.47 91.388,261.505 88.5,261C85.847,258.621 85.519,257.329 85.313,253.75C85.374,252.843 85.436,251.935 85.5,251C86.49,250.67 87.48,250.34 88.5,250C88.83,240.1 89.16,230.2 89.5,220C88.18,219.67 86.86,219.34 85.5,219C84.25,216.438 84.25,216.438 83.5,214C82.885,214.046 82.27,214.093 81.637,214.141C79.204,214.249 76.919,214.289 74.5,214C72.625,212.063 72.625,212.063 71.5,210C70.51,209.67 69.52,209.34 68.5,209C68.273,209.701 68.046,210.403 67.813,211.125C65.737,215.671 63.231,219.154 58.688,221.375C57.966,221.581 57.244,221.788 56.5,222C56.575,224.945 56.656,227.218 57.5,230C60.151,232.305 60.151,232.305 62.16,233.6C65.927,236.21 68.534,238.816 70.5,243C71.734,250.402 71.648,257.82 71.453,265.304C71.437,266.048 71.422,266.791 71.405,267.557C71.368,268.975 71.309,270.392 71.226,271.809C71.108,273.969 71.108,273.969 71.5,277C73.364,278.999 73.364,278.999 75.5,280C75.188,283.375 75.188,283.375 74.5,287C71.267,289.155 70.248,289.469 66.5,289C64.688,287.875 64.688,287.875 63.5,286C63.125,283 63.125,283 63.5,280C63.987,279.589 64.475,279.177 64.977,278.753C68.601,274.582 67.427,266.524 67.5,261.125C67.513,260.37 67.527,259.615 67.541,258.837C67.697,247.119 67.697,247.119 61.844,237.33C60.067,235.867 58.249,234.559 56.344,233.27C53.5,231 53.5,231 53.094,227.699C53.228,226.808 53.362,225.918 53.5,225C52.752,225.217 52.005,225.433 51.234,225.656C49.757,226.074 49.757,226.074 48.25,226.5C46.788,226.918 46.788,226.918 45.297,227.344C42.5,228 42.5,228 38.5,228C38.47,232.003 38.486,236.003 38.543,240.006C38.556,241.364 38.557,242.723 38.545,244.082C38.259,252.107 38.259,252.107 41.094,259.344C42.944,261.176 42.944,261.176 44.928,262.573C47.736,265.122 47.254,268.373 47.5,272C48.49,272.66 49.48,273.32 50.5,274C50.813,277 50.813,277 50.5,280C48.5,282 48.5,282 45,282.25C41.5,282 41.5,282 39.5,280C39.188,277.063 39.188,277.063 39.5,274C40.479,272.98 41.479,271.979 42.5,271C43.337,268.677 43.337,268.677 42.5,266C41.347,265.055 40.173,264.135 38.988,263.23C35.386,259.737 34.965,257.153 34.816,252.191C34.863,249.648 34.946,247.104 35.063,244.563C35.094,243.259 35.126,241.955 35.158,240.611C35.24,237.405 35.355,234.204 35.5,231C34.752,231.422 34.005,231.843 33.234,232.277C32.25,232.825 31.265,233.373 30.25,233.938C29.275,234.483 28.301,235.028 27.297,235.59C24.5,237 24.5,237 22.266,237.441C20.362,237.856 20.362,237.856 19.276,239.628C18.243,242.785 18.17,245.632 18.086,248.953C18.067,249.613 18.047,250.274 18.027,250.954C17.968,253.052 17.921,255.151 17.875,257.25C17.837,258.677 17.798,260.104 17.758,261.531C17.662,265.021 17.578,268.51 17.5,272C18.119,272.268 18.738,272.536 19.375,272.813C21.5,274 21.5,274 23.5,277C23.358,280.404 23.118,282.314 20.813,284.875C17.733,286.373 15.883,286.564 12.5,286C10.063,283.938 10.063,283.938 8.5,281C8.75,277.188 8.75,277.188 9.5,274C11.15,273.34 12.8,272.68 14.5,272C14.17,264.08 13.84,256.16 13.5,248C11.025,249.98 11.025,249.98 8.5,252C7.51,252.66 6.52,253.32 5.5,254C5.028,256.146 5.028,256.146 5.08,258.662C5.064,259.63 5.048,260.598 5.032,261.595C5.032,262.644 5.031,263.693 5.031,264.773C5.024,265.849 5.016,266.924 5.008,268.032C4.997,270.31 4.995,272.588 4.999,274.866C5,278.354 4.958,281.84 4.914,285.328C4.909,287.539 4.906,289.75 4.906,291.961C4.89,293.006 4.873,294.051 4.857,295.127C4.883,297.847 4.942,300.338 5.5,303C7.883,305.493 7.883,305.493 10.5,307C10.5,310.518 10.148,312.883 8.375,315.938C5.315,317.671 2.932,317.421 -0.5,317C-2.938,315.375 -2.938,315.375 -4.5,313C-5,310 -5,310 -4.5,307C-3.513,306.247 -3.513,306.247 -2.507,305.479C0.707,301.509 0.103,297.289 0.109,292.328C0.126,291.291 0.142,290.253 0.159,289.184C0.208,285.873 0.229,282.562 0.25,279.25C0.278,277.004 0.308,274.758 0.34,272.512C0.414,267.008 0.465,261.504 0.5,256C-0.644,256.24 -0.644,256.24 -1.812,256.485C-10.706,258.189 -18.671,257.585 -26.5,253C-27.511,252.443 -28.521,251.886 -29.563,251.313C-36.874,245.557 -43.268,238.273 -44.87,228.817C-45.007,226.565 -45.029,224.344 -45.001,222.089C-45.007,221.239 -45.012,220.388 -45.018,219.513C-45.031,216.689 -45.017,213.867 -45.002,211.043C-45.005,209.009 -45.011,206.975 -45.018,204.94C-45.032,199.432 -45.021,193.924 -45.004,188.416C-44.99,182.641 -44.997,176.867 -45.001,171.093C-45.003,161.396 -44.99,151.7 -44.967,142.003C-44.94,130.807 -44.938,119.61 -44.95,108.413C-44.961,97.626 -44.955,86.839 -44.94,76.052C-44.935,71.469 -44.935,66.886 -44.939,62.303C-44.944,56.901 -44.934,51.5 -44.912,46.098C-44.907,44.12 -44.906,42.143 -44.911,40.165C-44.966,15.663 -44.966,15.663 -36.539,6.824C-26.651,-2.022 -12.584,-5.924 0,0Z" style="fill:rgb(8,8,9);fill-rule:nonzero;"/>
        </g>
        <g transform="matrix(1,0,0,1,1.1901,-130)">
            <path d="M0,0C6.95,5.241 11.215,10.149 13.336,18.762C14.081,25.353 13.873,32.027 13.838,38.648C13.841,40.663 13.847,42.678 13.854,44.693C13.868,50.143 13.857,55.593 13.84,61.044C13.826,66.759 13.833,72.475 13.836,78.19C13.839,87.787 13.826,97.383 13.802,106.979C13.776,118.06 13.774,129.14 13.786,140.22C13.797,150.898 13.79,161.575 13.776,172.253C13.771,176.788 13.771,181.324 13.775,185.86C13.78,191.205 13.77,196.55 13.748,201.895C13.743,203.852 13.742,205.808 13.747,207.765C13.78,222.311 13.123,234.285 2.742,245.48C-3.811,251.539 -10.667,255.047 -19.664,255.262C-29.353,254.862 -37.691,252.838 -44.664,245.762C-45.8,244.074 -46.903,242.364 -47.977,240.637C-51.293,235.549 -54.401,234.262 -60.121,232.617C-63.021,231.642 -64.574,230.065 -66.758,227.977C-69.584,226.176 -72.69,225.584 -75.914,224.824C-85.266,222.572 -92.967,219.166 -98.414,210.934C-103.93,201.349 -105.437,191.213 -103.145,180.285C-102.986,179.782 -102.827,179.28 -102.664,178.762C-103.404,178.521 -104.144,178.28 -104.906,178.031C-108.039,176.589 -109.556,175.055 -111.789,172.449C-112.452,171.69 -113.114,170.931 -113.797,170.148C-120.308,161.826 -120.679,153.035 -119.664,142.762C-118.53,139.971 -117.165,137.538 -115.645,134.945C-114.321,131.997 -114.987,129.931 -116.027,126.949C-118.12,119.758 -117.176,111.979 -114.145,105.227C-111.175,100.283 -106.917,94.388 -101.664,91.762C-101.428,89.22 -101.296,86.747 -101.227,84.199C-100.709,73.448 -98.073,66.84 -90.664,58.762C-87.092,55.762 -87.092,55.762 -84.664,55.762C-84.699,55.084 -84.734,54.406 -84.77,53.707C-85.053,43.966 -83.933,36.957 -77.414,29.449C-72.197,24.063 -67.143,19.521 -59.664,17.762C-58.483,17.752 -58.483,17.752 -57.277,17.742C-54.544,17.697 -52.286,17.554 -49.664,16.762C-47.779,14.74 -46.572,12.646 -45.207,10.246C-41.191,3.781 -34.764,-1.126 -27.594,-3.605C-17.827,-5.715 -8.589,-5.533 0,0Z" style="fill:rgb(8,8,8);fill-rule:nonzero;"/>
        </g>
        <g transform="matrix(1,0,0,1,62.526,-122.239)">
            <path d="M0,0C7.327,2.537 11.77,7.097 15.563,13.734C17.146,17.332 17.672,20.416 18.125,24.313C18.271,28.48 18.271,28.48 20,32C23.5,32.167 23.5,32.167 27,32C28.663,30.337 28.36,28.217 28.563,25.938C28.646,25.018 28.73,24.099 28.816,23.152C28.907,22.087 28.907,22.087 29,21C36.317,20.865 39.618,23.706 44.898,28.578C49.253,33.597 49.074,37.652 49,44C48.017,44.004 47.034,44.008 46.022,44.012C42.337,44.034 38.653,44.089 34.968,44.153C33.381,44.176 31.793,44.19 30.205,44.196C19.61,44.239 11.589,44.83 3.5,52.313C1.474,55.943 1.28,58.864 1,63C6.364,63.755 6.364,63.755 11.02,61.477C12.232,60.226 13.412,58.944 14.555,57.629C16,56 16,56 18,55C22.315,54.764 26.635,54.772 30.956,54.76C33.096,54.75 35.235,54.719 37.375,54.688C46.079,54.619 53.101,54.94 60.313,60.25C64.628,64.666 66.153,68.779 66.25,74.875C66.17,78.83 66.17,78.83 65,80C61.604,80.237 58.216,80.396 54.814,80.518C50.442,80.571 50.442,80.571 47,83C47.164,86.566 47.164,86.566 48,90C50.689,91.345 53.167,91.096 56.121,91.137C64.494,91.309 70.813,91.769 77,98C77.846,98.846 78.691,99.691 79.563,100.563C81.848,106.028 82.07,111.185 81,117C78.413,121.602 74.951,125.052 70,127L66,127C65.567,126.196 65.134,125.391 64.688,124.563C63.157,121.617 63.157,121.617 59.438,121.063C58.303,121.042 57.169,121.021 56,121C53.779,122.815 53.779,122.815 53.688,125.375C53.755,128.048 53.755,128.048 55.512,129.723C57.597,132.913 57.26,135.293 57.125,139.063C56.916,144.123 56.916,144.123 58,149C63.015,148.67 63.015,148.67 67,146C67.206,144.701 67.413,143.401 67.625,142.063C68.465,138.347 68.465,138.347 70.73,136.879C72.803,136.128 74.865,135.543 77,135C78.669,134.339 80.337,133.676 82,133C85.459,137.179 85.508,141.146 85.348,146.348C84.673,151.493 81.773,154.433 78.063,157.75C74.109,160.655 71.382,161.774 66.563,162.563C62.027,161.846 61.327,160.368 58.641,156.891C54.887,152.564 50.447,150.23 44.754,149.695C41.817,149.688 38.927,149.777 36,150C35.443,151.114 34.886,152.228 34.313,153.375C32.747,156.153 32.181,156.905 29.25,158.438C28.508,158.623 27.765,158.809 27,159L27,161C32.083,161.113 32.083,161.113 37,160C42.537,159.349 45.725,160.447 50.199,163.496C52.879,165.734 54.358,167.921 56,171L56,173C56.771,172.965 57.542,172.93 58.336,172.895C59.84,172.854 59.84,172.854 61.375,172.813C62.373,172.778 63.37,172.743 64.398,172.707C65.686,172.852 65.686,172.852 67,173C70.27,177.905 69.536,183.269 69,189C67.309,195.28 63.279,199.394 58,203C54.95,204.525 53.41,205 50,205C49.914,204.287 49.827,203.574 49.738,202.84C48.813,196.125 48.813,196.125 45.313,190.5C43.377,188.187 43.003,187.282 42.969,184.199C43.192,182.244 43.466,180.294 43.801,178.355C43.867,177.578 43.932,176.801 44,176C43.34,175.34 42.68,174.68 42,174C38.503,173.928 38.503,173.928 35,175C33.372,177.323 33.372,177.323 32,180C27.008,184.222 23.657,184.297 17.5,184.063C14.57,184.079 11.823,184.178 9,185C6.491,187.614 5.447,189.912 4.113,193.262C2.484,197.269 0.601,198.674 -3,201C-6.313,202.25 -6.313,202.25 -9,203C-9.33,203.33 -9.66,203.66 -10,204C-9.748,207.517 -9.748,207.517 -9,211C-5.662,212.669 -2.618,212.515 0.926,211.387C6.946,208.733 12.412,204.025 14.871,197.793C16,196 16,196 18.355,195.426C19.757,195.37 19.757,195.37 21.188,195.313C24.539,195.146 27.663,194.914 30.938,194.188C34,194 34,194 36.438,195.375C38.742,199.247 38.883,202.609 38,207C36.3,210.296 34.049,212.447 30.742,214.191C27.355,215.19 24.809,214.915 21.313,214.5C17.968,214.057 17.968,214.057 15,214C12.71,215.872 12.71,215.872 12.688,218.875C13.026,222.264 13.728,223.539 16,226C11.708,230.671 7.98,233.624 1.563,234.434C-10.442,234.447 -10.442,234.447 -15,230C-21.368,223.496 -24.228,218.945 -24.227,209.725C-24.216,208.788 -24.206,207.852 -24.195,206.887C-24.191,205.432 -24.191,205.432 -24.187,203.949C-24.176,200.861 -24.15,197.775 -24.125,194.688C-24.115,192.59 -24.106,190.493 -24.098,188.396C-24.076,183.264 -24.041,178.132 -24,173C-22.043,173.509 -20.086,174.017 -18.128,174.526C-9.658,176.413 -3.124,173.862 4.238,169.75C10.8,165.4 13.564,159.307 16,152C16.822,143.526 16.446,136.8 11,130C8.354,127.63 8.354,127.63 6,126L6,124C8.944,122.32 11.07,121.753 14.449,121.727C15.298,121.706 16.147,121.685 17.021,121.664C18.779,121.638 20.537,121.62 22.295,121.609C29.663,121.409 36.161,119.912 41.438,114.5C41.953,113.675 42.469,112.85 43,112C43.413,111.361 43.825,110.721 44.25,110.063C45.269,107.261 45.257,104.955 45,102C43.121,99.763 43.121,99.763 40.188,99.375C36.985,99.644 36.985,99.644 35.672,101.684C34.86,103.083 34.091,104.508 33.371,105.957C31.513,108.726 30.077,109.666 27,111C23.898,111.417 20.814,111.466 17.688,111.5C8.242,111.604 0.984,113.016 -6,120C-8.82,123.561 -10.038,126.211 -9.813,130.875C-9.321,133.848 -9.321,133.848 -8,135C-6.561,134.942 -5.124,134.853 -3.688,134.75C-0.287,134.745 0.701,134.789 3.563,136.813C5.734,141.628 5.922,145.813 5,151C2.568,156.849 -1.036,160.973 -6.922,163.41C-10.592,164.452 -13.168,164.494 -17,164C-19.657,162.503 -21.847,161.153 -24,159C-24.121,156.783 -24.17,154.561 -24.193,152.341C-24.201,151.645 -24.209,150.949 -24.218,150.232C-24.243,147.919 -24.259,145.606 -24.273,143.293C-24.279,142.505 -24.284,141.716 -24.29,140.904C-24.316,136.73 -24.336,132.556 -24.35,128.383C-24.367,124.068 -24.412,119.754 -24.462,115.44C-24.496,112.126 -24.508,108.812 -24.513,105.498C-24.52,103.907 -24.535,102.317 -24.559,100.726C-24.591,98.5 -24.591,96.275 -24.583,94.048C-24.592,92.78 -24.6,91.513 -24.608,90.208C-24,87 -24,87 -21.682,84.563C-19,83 -19,83 -15.5,82.938C-11.184,84.248 -9.53,85.243 -7,89C-6.597,92.377 -6.704,95.618 -7,99C-6.334,98.59 -5.667,98.18 -4.98,97.758C-0.142,94.929 4.038,92.736 9.625,91.938C17.179,90.828 22.734,88.038 27.438,81.938C31.116,76.802 31.116,76.802 31.625,70.75C31.419,69.843 31.212,68.935 31,68C28.69,67.67 26.38,67.34 24,67C23.587,67.664 23.175,68.328 22.75,69.012C18.093,76.133 14.008,80.816 5.563,82.813C0.802,81.727 -1.568,79.235 -4.984,75.848C-8.715,72.428 -12.345,72.893 -17.188,72.938C-18.46,72.947 -19.732,72.956 -21.043,72.965C-22.019,72.976 -22.995,72.988 -24,73C-25.779,56.662 -25.779,56.662 -21.797,51.637C-18.979,48.915 -16.053,46.453 -13,44C-11.734,42.638 -10.499,41.245 -9.313,39.813C-6.891,36.926 -4.297,34.459 -1.5,31.938C0.542,30.058 0.542,30.058 2,28C2.211,24.105 2.211,24.105 1,21C-2.231,20.008 -2.231,20.008 -6,20C-8.262,21.842 -9.74,23.32 -11.5,25.563C-12.381,26.63 -13.266,27.694 -14.156,28.754C-14.601,29.285 -15.046,29.816 -15.504,30.364C-18.088,33.19 -21.032,35.59 -24,38C-24.117,33.792 -24.187,29.584 -24.25,25.375C-24.284,24.185 -24.317,22.995 -24.352,21.77C-24.474,10.803 -24.474,10.803 -20,6C-13.839,-0.205 -8.538,-0.923 0,0Z" style="fill:rgb(246,246,245);fill-rule:nonzero;"/>
        </g>
        <g transform="matrix(1,0,0,1,-8.15756,-121.399)">
            <path d="M0,0C5.089,2.868 8.496,6.75 10.684,12.16C11.264,16.518 11.159,20.774 10.996,25.16C10.974,26.316 10.951,27.473 10.928,28.664C10.869,31.497 10.787,34.328 10.684,37.16C6.929,35.428 4.844,33.36 2.121,30.223C-0.884,26.748 -0.884,26.748 -4.094,23.469C-5.316,22.16 -5.316,22.16 -5.316,20.16C-7.235,19.851 -10.63,19.303 -11.371,19.184C-12.013,19.176 -12.655,19.168 -13.316,19.16C-13.976,19.82 -14.636,20.48 -15.316,21.16C-15.284,25.634 -14.695,27.697 -11.84,31.188C-10.804,32.173 -9.754,33.142 -8.691,34.098C-7.591,35.139 -6.492,36.182 -5.395,37.227C-4.863,37.727 -4.331,38.227 -3.783,38.743C-1.349,41.095 0.82,43.652 2.988,46.246C4.568,48.135 4.568,48.135 6.199,49.39C8.689,51.51 10.44,53.064 11.167,56.329C11.273,58.757 11.209,61.109 11.059,63.535C11.018,64.782 11.018,64.782 10.977,66.055C10.906,68.091 10.799,70.126 10.684,72.16C9.743,72.125 8.802,72.091 7.832,72.055C6.587,72.028 5.342,72.001 4.059,71.973C2.829,71.938 1.599,71.903 0.332,71.867C-6.263,72.397 -9.942,75.411 -14.316,80.16C-15.846,81.69 -17.249,81.477 -19.379,81.598C-24.171,81.522 -26.824,80.112 -30.473,77.094C-33.106,74.332 -34.973,71.257 -36.797,67.918C-38.215,65.892 -38.215,65.892 -40.867,65.777C-43.49,65.941 -43.49,65.941 -45.316,68.16C-45.206,74.583 -43.635,79.333 -39.316,84.16C-33.163,89.34 -27.362,90.653 -19.523,91.527C-14.416,92.535 -10.498,95.158 -6.316,98.16C-6.363,97.496 -6.409,96.832 -6.457,96.148C-6.754,88.875 -6.754,88.875 -4.441,85.098C-1.915,82.794 -0.905,82.226 2.496,81.848C6.538,82.244 7.872,83.261 10.684,86.16C11.339,89.341 11.339,89.341 11.378,93.144C11.399,94.187 11.399,94.187 11.419,95.25C11.457,97.542 11.457,99.832 11.453,102.125C11.464,103.722 11.476,105.318 11.489,106.915C11.51,110.26 11.511,113.604 11.5,116.949C11.489,121.232 11.536,125.512 11.6,129.794C11.64,133.091 11.644,136.387 11.637,139.684C11.64,141.263 11.654,142.841 11.682,144.42C11.874,156.706 11.874,156.706 8.979,160.242C5.191,162.734 1.252,163.962 -3.301,163.648C-9.278,162.2 -14.011,158.245 -17.316,153.16C-19.682,148.784 -19.481,145.024 -19.316,140.16L-17.316,140.16C-17.193,139.541 -17.069,138.923 -16.941,138.285C-16.316,136.16 -16.316,136.16 -14.316,134.16C-11.99,134.021 -9.736,134.164 -7.41,134.285C-5.093,134.379 -5.093,134.379 -3.316,132.16C-2.494,127.948 -3.529,125.249 -5.629,121.66C-9.633,116.236 -13.805,113.054 -20.316,111.16C-25.072,110.646 -29.83,110.519 -34.611,110.561C-41.654,110.556 -41.654,110.556 -45.371,108.336C-47.635,105.804 -48.942,103.254 -50.316,100.16C-51.428,98.828 -51.428,98.828 -54.254,98.973C-57.425,98.827 -57.425,98.827 -59.316,101.16C-59.107,106.61 -57.705,109.924 -54.316,114.16C-49.815,118.211 -46.309,120.375 -40.219,120.504C-39.253,120.534 -38.286,120.563 -37.291,120.594C-35.262,120.638 -33.234,120.682 -31.205,120.727C-29.758,120.771 -29.758,120.771 -28.281,120.816C-27.401,120.835 -26.52,120.854 -25.613,120.873C-23.316,121.16 -23.316,121.16 -20.316,123.16C-21.316,126.16 -21.316,126.16 -23.629,128.348C-28.483,133.428 -30.552,137.962 -30.879,145.035C-30.569,153.499 -26.709,160.445 -21.055,166.625C-14.981,171.989 -8.41,174.311 -0.379,174.285C0.841,174.289 0.841,174.289 2.086,174.293C5.008,174.144 7.803,173.659 10.684,173.16C10.758,179.013 10.812,184.866 10.848,190.72C10.863,192.709 10.884,194.699 10.91,196.688C10.946,199.555 10.963,202.422 10.977,205.289C10.992,206.172 11.008,207.054 11.023,207.964C11.026,216.506 8.406,222.157 2.551,228.426C-3.061,233.639 -8.904,233.693 -16.285,233.516C-20.239,233.052 -22.403,231.849 -25.316,229.16C-26.1,228.459 -26.884,227.758 -27.691,227.035C-29.316,225.16 -29.316,225.16 -29.316,223.16C-28.326,222.5 -27.336,221.84 -26.316,221.16C-25.9,218.16 -25.9,218.16 -26.316,215.16C-26.976,214.5 -27.636,213.84 -28.316,213.16C-31.821,213.308 -35.256,213.745 -38.738,214.164C-43.917,214.158 -46.983,212.423 -50.691,208.91C-52.84,205.274 -52.964,203.332 -52.316,199.16C-50.855,196.566 -49.213,194.483 -47.316,192.16C-46.524,192.392 -46.524,192.392 -45.715,192.629C-43.231,193.24 -43.231,193.24 -40.293,193.379C-31.356,194.129 -31.356,194.129 -28.309,197.152C-27.322,198.728 -26.384,200.336 -25.5,201.973C-22.714,207.122 -17.693,209.399 -12.316,211.16C-7.967,211.127 -7.967,211.127 -4.316,209.16C-3.983,205.702 -3.983,205.702 -4.316,202.16C-7.197,199.97 -7.197,199.97 -10.629,199.473C-15.363,197.788 -17.657,195.355 -20.316,191.16C-21.392,188.851 -22.355,186.521 -23.316,184.16C-24.474,184.134 -25.632,184.109 -26.824,184.082C-28.363,184.026 -29.902,183.968 -31.441,183.91C-32.202,183.896 -32.963,183.882 -33.746,183.867C-39.006,183.64 -42.155,182.651 -46.316,179.16C-46.976,178.088 -47.636,177.015 -48.316,175.91C-48.976,175.003 -49.636,174.095 -50.316,173.16C-53.444,172.576 -53.444,172.576 -56.316,173.16C-57.758,174.374 -57.758,174.374 -57.441,177.973C-57.437,180.408 -57.379,181.997 -56.504,184.285C-56.442,184.904 -56.38,185.523 -56.316,186.16C-57.554,187.498 -58.792,188.835 -60.035,190.168C-62.671,194.266 -62.801,199.403 -63.316,204.16C-70.995,203.072 -75.158,199.669 -80.117,193.941C-82.698,190.108 -82.478,186.113 -82.504,181.598C-82.518,180.462 -82.532,179.326 -82.547,178.156C-82.316,175.16 -82.316,175.16 -80.316,172.16C-78.145,171.93 -78.145,171.93 -75.566,171.973C-71.646,171.741 -71.646,171.741 -68.605,169.465C-67.657,168.045 -66.725,166.613 -65.809,165.172C-63.346,161.852 -60.199,160.387 -56.316,159.16C-52.105,158.674 -50.004,159.317 -46.316,161.16C-44.008,160.821 -42.401,160.203 -40.316,159.16C-40.81,158.797 -41.304,158.433 -41.813,158.059C-47.111,153.901 -47.111,153.901 -48.254,149.785C-48.275,148.919 -48.295,148.053 -48.316,147.16C-56.218,147.325 -62.754,148.548 -69.316,153.16C-70.902,155.016 -70.902,155.016 -72.254,156.973C-74.101,159.382 -74.907,160.068 -77.914,160.746C-83.835,160.953 -87.802,160.244 -92.316,156.16C-96.673,151.507 -98.465,148.636 -98.504,142.223C-98.518,141.162 -98.532,140.101 -98.547,139.008C-98.316,136.16 -98.316,136.16 -96.316,133.16C-83.64,136.212 -83.64,136.212 -80.777,140.426C-79.805,142.65 -78.984,144.827 -78.316,147.16C-75.983,147.203 -73.649,147.201 -71.316,147.16C-70.986,146.83 -70.656,146.5 -70.316,146.16C-70.324,143.033 -70.395,139.919 -70.531,136.795C-70.624,132.495 -70.185,130.355 -67.316,127.16C-66.899,124.576 -66.899,124.576 -67.316,122.16C-69.189,119.906 -69.189,119.906 -72.129,119.66C-75.64,120.211 -76.041,120.563 -78.191,123.16C-78.893,124.15 -79.594,125.14 -80.316,126.16C-85.846,125.091 -89.522,123.641 -92.879,118.973C-95.58,114.323 -96.16,111.476 -95.316,106.16C-93.291,99.894 -89.622,95.937 -84.316,92.16C-82.023,91.013 -80.621,91.008 -78.07,90.949C-77.233,90.921 -76.396,90.893 -75.533,90.863C-73.768,90.811 -72.002,90.767 -70.236,90.73C-69.398,90.7 -68.559,90.669 -67.695,90.637C-66.544,90.607 -66.544,90.607 -65.369,90.577C-62.791,90.054 -61.857,89.272 -60.316,87.16C-60.392,84.04 -60.392,84.04 -61.316,81.16C-64.835,79.401 -69.097,79.79 -72.994,79.643C-74.773,79.551 -76.547,79.363 -78.316,79.16C-80.076,75.641 -79.844,72.001 -79.316,68.16C-77.162,62.504 -73.57,59.155 -68.477,56.07C-61.651,53.195 -53.641,53.867 -46.379,53.785C-45.129,53.748 -43.879,53.71 -42.592,53.672C-35.102,53.6 -30.815,53.904 -25.316,59.16C-23.379,61.473 -23.379,61.473 -22.316,63.16C-18.498,62.885 -18.498,62.885 -15.316,61.16C-14.68,57.899 -14.836,55.896 -16.668,53.09C-21.089,47.812 -25.042,44.533 -32.119,43.728C-33.525,43.687 -34.933,43.661 -36.34,43.648C-37.086,43.63 -37.832,43.613 -38.601,43.594C-40.964,43.54 -43.328,43.506 -45.691,43.473C-47.302,43.439 -48.913,43.405 -50.523,43.369C-54.454,43.285 -58.385,43.218 -62.316,43.16C-62.654,36.425 -62.185,32.619 -58.094,27.113C-54.561,23.231 -51.235,21.3 -45.879,20.91C-44.61,21.034 -44.61,21.034 -43.316,21.16C-43.184,21.798 -43.051,22.436 -42.914,23.094C-42.737,23.92 -42.561,24.746 -42.379,25.598C-42.205,26.421 -42.031,27.245 -41.852,28.094C-41.509,30.137 -41.509,30.137 -40.316,31.16C-37.358,31.41 -37.358,31.41 -34.316,31.16C-31.782,28.626 -32.098,27.665 -32.004,24.16C-31.358,15.937 -28.419,9.744 -22.316,4.16C-15.971,-1.162 -7.914,-2.869 0,0Z" style="fill:rgb(247,247,246);fill-rule:nonzero;"/>
        </g>
        <g transform="matrix(1,0,0,1,-104.474,11.7614)">
            <path d="M0,0C12.677,3.052 12.677,3.052 15.539,7.266C16.511,9.49 17.332,11.667 18,14L25,14C25.66,12.35 26.32,10.7 27,9L28,9C28.33,10.98 28.66,12.96 29,15L34,15C32.948,15.835 32.948,15.835 31.875,16.688C30.926,17.451 29.978,18.214 29,19C28.473,19.42 27.946,19.84 27.402,20.273C24.789,22.392 22.881,24.178 21,27C15.903,27.924 11.284,27.618 6.625,25.375C-1.831,17.724 -1.831,17.724 -2.168,12.285C-2.178,10.69 -2.178,10.69 -2.188,9.063C-2.202,8.002 -2.216,6.941 -2.23,5.848C-2,3 -2,3 0,0Z" style="fill:rgb(243,243,243);fill-rule:nonzero;"/>
        </g>
        <g transform="matrix(1,0,0,1,-55.474,70.7614)">
            <path d="M0,0C0.793,0.232 0.793,0.232 1.602,0.469C4.085,1.08 4.085,1.08 7.023,1.219C15.922,1.965 15.922,1.965 19.113,5.027C20.596,7.298 21.828,9.557 23,12C23.99,13.485 23.99,13.485 25,15C24.01,15.33 23.02,15.66 22,16C21.01,15.34 20.02,14.68 19,14C18.67,15.32 18.34,16.64 18,18C19.32,18.66 20.64,19.32 22,20C21.34,20.66 20.68,21.32 20,22C19.67,21.67 19.34,21.34 19,21C15.527,21.267 12.074,21.652 8.613,22.039C3.425,21.983 0.344,20.274 -3.375,16.75C-5.524,13.114 -5.647,11.171 -5,7C-3.539,4.406 -1.896,2.323 0,0Z" style="fill:rgb(245,244,243);fill-rule:nonzero;"/>
        </g>
        <g transform="matrix(1,0,0,1,164.526,73.7614)">
            <path d="M0,0C2.375,1.625 2.375,1.625 4,4C4.5,7 4.5,7 4,10C3.341,10.586 2.681,11.172 2.002,11.775C-0.696,14.773 -0.516,16.604 -0.531,20.594C-0.536,21.871 -0.542,23.149 -0.547,24.465C-0.538,25.127 -0.53,25.79 -0.521,26.472C-0.5,28.494 -0.521,30.513 -0.547,32.535C-0.542,33.813 -0.537,35.09 -0.531,36.406C-0.527,37.575 -0.522,38.743 -0.518,39.947C0.101,43.597 1.298,44.594 4,47C3.929,49.895 3.387,51.439 1.75,53.813C-0.692,55.47 -2.112,55.505 -5,55C-7.653,52.621 -7.981,51.329 -8.188,47.75C-8.126,46.843 -8.064,45.935 -8,45C-6.515,44.505 -6.515,44.505 -5,44C-4.67,34.1 -4.34,24.2 -4,14C-5.32,13.67 -6.64,13.34 -8,13C-9.25,10.438 -9.25,10.438 -10,8C-10.592,8.07 -11.183,8.139 -11.793,8.211C-18.17,8.648 -18.17,8.648 -20.711,6.664C-22.063,5 -22.063,5 -24,2C-22.68,1.67 -21.36,1.34 -20,1C-19.34,1.99 -18.68,2.98 -18,4C-16.036,4.577 -16.036,4.577 -13.875,4.688C-11.957,4.842 -11.957,4.842 -10,5C-9.711,4.361 -9.423,3.721 -9.125,3.063C-7.027,-0.783 -4.051,-0.405 0,0Z" style="fill:rgb(28,28,28);fill-rule:nonzero;"/>
        </g>
        <g transform="matrix(1,0,0,1,1.52603,51.7614)">
            <path d="M0,0L1,0C1.074,5.853 1.129,11.706 1.165,17.56C1.18,19.549 1.2,21.538 1.226,23.528C1.263,26.395 1.28,29.262 1.293,32.129C1.308,33.011 1.324,33.894 1.34,34.803C1.342,43.346 -1.277,48.997 -7.133,55.266C-12.745,60.478 -18.587,60.533 -25.969,60.355C-29.922,59.892 -32.087,58.689 -35,56C-36.176,54.948 -36.176,54.948 -37.375,53.875C-39,52 -39,52 -39,50C-37.68,49.34 -36.36,48.68 -35,48C-34.216,48.66 -33.433,49.32 -32.625,50C-28.304,52.847 -24.002,52.774 -19,52C-15.848,50.919 -12.964,49.509 -10,48C-8.515,47.505 -8.515,47.505 -7,47C-5.973,45.285 -5.973,45.285 -5,43C-4.331,41.973 -3.661,40.945 -2.972,39.886C-0.595,35.74 -0.398,32.145 -0.391,27.441C-0.374,26.652 -0.358,25.863 -0.341,25.05C-0.292,22.554 -0.271,20.059 -0.25,17.563C-0.222,15.86 -0.192,14.158 -0.16,12.455C-0.087,8.303 -0.037,4.152 0,0Z" style="fill:rgb(195,195,195);fill-rule:nonzero;"/>
        </g>
        <g transform="matrix(1,0,0,1,38.526,50.7614)">
            <path d="M0,0C0.99,0.495 0.99,0.495 2,1C1.969,2.074 1.937,3.147 1.905,4.254C1.795,8.273 1.727,12.293 1.67,16.314C1.64,18.047 1.6,19.78 1.547,21.513C0.868,34.313 0.868,34.313 6.418,45.439C7.201,46.212 7.201,46.212 8,47C8.715,47.723 9.431,48.446 10.168,49.191C16.031,53.172 20.982,54.225 28,53C31.165,51.928 34.078,50.616 37,49C37.99,50.32 38.98,51.64 40,53C35.708,57.671 31.98,60.624 25.563,61.434C13.558,61.447 13.558,61.447 9,57C2.632,50.496 -0.228,45.945 -0.227,36.725C-0.216,35.788 -0.206,34.852 -0.195,33.887C-0.191,32.432 -0.191,32.432 -0.187,30.949C-0.176,27.861 -0.15,24.775 -0.125,21.688C-0.115,19.59 -0.106,17.493 -0.098,15.396C-0.076,10.264 -0.041,5.132 0,0Z" style="fill:rgb(197,197,199);fill-rule:nonzero;"/>
        </g>
        <g transform="matrix(1,0,0,1,126.526,97.7614)">
            <path d="M0,0C6.074,2.648 11.627,7.257 15,13C16.708,18.644 16.189,24.678 15.938,30.5C15.876,32.821 15.831,35.14 15.806,37.461C15.787,38.894 15.745,40.327 15.676,41.758C15.579,43.94 15.579,43.94 16,47C17.867,49.002 17.867,49.002 20,50C19.688,53.375 19.688,53.375 19,57C15.767,59.155 14.748,59.469 11,59C9.188,57.875 9.188,57.875 8,56C7.625,53 7.625,53 8,50C8.488,49.589 8.976,49.179 9.479,48.756C13.099,44.578 11.877,36.467 11.938,31.063C11.955,29.931 11.955,29.931 11.973,28.776C12.173,17.216 12.173,17.216 6.701,7.394C4.242,5.288 1.831,3.58 -1,2C-0.67,1.34 -0.34,0.68 0,0Z" style="fill:rgb(24,24,24);fill-rule:nonzero;"/>
        </g>
        <g transform="matrix(1,0,0,1,87.526,110.761)">
            <path d="M0,0L1,0L1,29C2.32,29.66 3.64,30.32 5,31C7,34 7,34 6.875,37C6,40 6,40 4.313,41.875C1.233,43.373 -0.617,43.564 -4,43C-6.438,40.938 -6.438,40.938 -8,38C-7.75,34.188 -7.75,34.188 -7,31C-5.35,30.34 -3.7,29.68 -2,29L-2,6L-1,6C-0.67,4.02 -0.34,2.04 0,0Z" style="fill:rgb(29,29,30);fill-rule:nonzero;"/>
        </g>
        <g transform="matrix(1,0,0,1,68.526,122.761)">
            <path d="M0,0L4,0L4,50C5.32,50.33 6.64,50.66 8,51C8.66,51.66 9.32,52.32 10,53C10.66,52.34 11.32,51.68 12,51C12.33,51.33 12.66,51.66 13,52C12.552,58.05 12.552,58.05 10.875,60.938C7.815,62.671 5.432,62.421 2,62C-0.438,60.375 -0.438,60.375 -2,58C-2.5,55 -2.5,55 -2,52C-1.342,51.498 -0.685,50.996 -0.007,50.479C3.207,46.509 2.603,42.289 2.609,37.328C2.626,36.291 2.642,35.253 2.659,34.184C2.708,30.873 2.729,27.562 2.75,24.25C2.778,22.004 2.808,19.758 2.84,17.512C2.914,12.008 2.965,6.504 3,1C2.01,0.67 1.02,0.34 0,0Z" style="fill:rgb(97,97,98);fill-rule:nonzero;"/>
        </g>
        <g transform="matrix(1,0,0,1,164.526,73.7614)">
            <path d="M0,0C2.375,1.625 2.375,1.625 4,4C4.503,8.108 4.327,9.509 2,13L0,13L0,11C-1.32,11.33 -2.64,11.66 -4,12L-4,14C-5.875,13.813 -5.875,13.813 -8,13C-9.25,10.438 -9.25,10.438 -10,8C-10.592,8.07 -11.183,8.139 -11.793,8.211C-18.17,8.648 -18.17,8.648 -20.711,6.664C-22.063,5 -22.063,5 -24,2C-22.68,1.67 -21.36,1.34 -20,1C-19.34,1.99 -18.68,2.98 -18,4C-16.036,4.577 -16.036,4.577 -13.875,4.688C-11.957,4.842 -11.957,4.842 -10,5C-9.711,4.361 -9.423,3.721 -9.125,3.063C-7.027,-0.783 -4.051,-0.405 0,0Z" style="fill:rgb(19,18,17);fill-rule:nonzero;"/>
        </g>
        <g transform="matrix(1,0,0,1,1.52603,-35.2386)">
            <path d="M0,0L1,0C1.185,9.301 1.328,18.601 1.414,27.904C1.456,32.224 1.513,36.542 1.604,40.861C1.691,45.03 1.738,49.198 1.759,53.369C1.774,54.958 1.803,56.548 1.846,58.137C2.17,70.555 2.17,70.555 -0.694,74.091C-4.48,76.582 -8.422,77.778 -12.969,77.508C-16.796,76.551 -19.87,74.331 -23,72C-19.998,70.999 -18.294,70.982 -15.188,71.125C-9.918,71.179 -6.615,69.94 -2.367,66.789C-0.34,64.136 -0.6,62.001 -0.568,58.693C-0.548,57.392 -0.528,56.09 -0.508,54.75C-0.501,53.329 -0.494,51.909 -0.488,50.488C-0.471,49.035 -0.453,47.582 -0.434,46.129C-0.386,42.307 -0.357,38.485 -0.33,34.662C-0.301,30.761 -0.254,26.86 -0.209,22.959C-0.123,15.306 -0.056,7.653 0,0Z" style="fill:rgb(183,183,183);fill-rule:nonzero;"/>
        </g>
        <g transform="matrix(1,0,0,1,130.526,53.7614)">
            <path d="M0,0L1,0C1.813,14.821 1.813,14.821 -3,21C-6.471,24.677 -10.052,27.626 -15,29L-18,29C-18.33,25.7 -18.66,22.4 -19,19C-17.639,18.773 -16.278,18.546 -14.875,18.313C-9.922,17.191 -7.473,15.721 -4,12C-1.965,8.07 -0.663,4.373 0,0Z" style="fill:rgb(203,203,203);fill-rule:nonzero;"/>
        </g>
        <g transform="matrix(1,0,0,1,38.526,-35.2386)">
            <path d="M0,0L1,0C1.001,0.818 1.003,1.636 1.004,2.479C1.022,10.189 1.064,17.899 1.132,25.609C1.166,29.573 1.191,33.536 1.196,37.5C1.2,41.326 1.228,45.151 1.273,48.976C1.286,50.436 1.291,51.895 1.286,53.354C1.281,55.399 1.307,57.442 1.341,59.487C1.347,60.651 1.354,61.815 1.361,63.013C1.752,66.194 1.752,66.194 4.416,68.345C8.66,71.063 11.689,71.122 16.625,71.063C17.685,71.056 17.685,71.056 18.766,71.049C20.51,71.037 22.255,71.019 24,71C19.795,75.346 17.168,76.794 11.063,77.375C6.444,77.279 3.256,75.256 0,72C-0.094,69.761 -0.117,67.518 -0.114,65.277C-0.114,64.575 -0.114,63.872 -0.114,63.149C-0.113,60.816 -0.105,58.484 -0.098,56.152C-0.096,54.54 -0.094,52.927 -0.093,51.314C-0.09,47.061 -0.08,42.808 -0.069,38.555C-0.058,34.218 -0.054,29.882 -0.049,25.545C-0.038,17.03 -0.021,8.515 0,0Z" style="fill:rgb(198,198,198);fill-rule:nonzero;"/>
        </g>
        <g transform="matrix(1,0,0,1,-90.474,53.7614)">
            <path d="M0,0L1,0C1.098,0.58 1.196,1.16 1.297,1.758C2.492,7.999 4.123,12.682 9.25,16.813C12.877,18.379 16.067,18.667 20,19C19.67,22.3 19.34,25.6 19,29C11.345,28.271 7.039,24.371 2.199,18.781C-0.441,14.86 -0.109,10.863 -0.063,6.25C-0.053,5.08 -0.044,3.909 -0.035,2.703C-0.024,1.811 -0.012,0.919 0,0Z" style="fill:rgb(192,192,192);fill-rule:nonzero;"/>
        </g>
        <g transform="matrix(1,0,0,1,108.526,124.761)">
            <path d="M0,0C3.873,1.578 6.384,3.748 9,7C9.434,9.035 9.434,9.035 9.625,11.188C9.749,12.446 9.873,13.704 10,15C10.99,15.66 11.98,16.32 13,17C13.313,20 13.313,20 13,23C11,25 11,25 7.5,25.25C4,25 4,25 2,23C1.688,20.063 1.688,20.063 2,17C2.979,15.98 3.979,14.979 5,14C5.753,11.675 5.753,11.675 5,9C3.191,6.478 1.157,4.228 -1,2C-0.67,1.34 -0.34,0.68 0,0Z" style="fill:rgb(12,12,12);fill-rule:nonzero;"/>
        </g>
        <g transform="matrix(1,0,0,1,146.526,15.7614)">
            <path d="M0,0L1,0C1.622,9.708 1.622,9.708 -0.625,14.375C-5.608,19.882 -10.06,23.524 -17.625,24.438C-21,24 -21,24 -22.938,21.5C-23.463,20.263 -23.463,20.263 -24,19C-22.886,19.103 -21.773,19.206 -20.625,19.313C-14.001,19.313 -8.334,16.101 -3.5,11.75C-1.448,7.987 -0.696,4.203 0,0Z" style="fill:rgb(201,201,201);fill-rule:nonzero;"/>
        </g>
        <g transform="matrix(1,0,0,1,99.526,75.7614)">
            <path d="M0,0L1,0C1.467,4.669 1.851,8.61 -1.188,12.438C-4.568,15.517 -6.563,17.047 -11.211,16.957C-15.274,16.609 -17.532,16.312 -21,14C-20.287,13.746 -19.574,13.492 -18.84,13.23C-16.857,12.518 -14.878,11.795 -12.902,11.063C-11.219,10.446 -9.527,9.851 -7.816,9.313C-5.235,8.424 -3.383,7.612 -1.91,5.258C-0.939,3.118 -0.939,3.118 0,0Z" style="fill:rgb(203,203,202);fill-rule:nonzero;"/>
        </g>
        <g transform="matrix(1,0,0,1,-106.474,14.7614)">
            <path d="M0,0L1,0L1,11C2.32,11.66 3.64,12.32 5,13C5.804,13.804 6.609,14.609 7.438,15.438C11.981,19.427 18.232,19.947 24,21C23.67,21.99 23.34,22.98 23,24C13.292,24.622 13.292,24.622 8.625,22.375C5.225,19.299 2.073,16.147 0,12C-0.071,9.959 -0.084,7.917 -0.063,5.875C-0.053,4.779 -0.044,3.684 -0.035,2.555C-0.024,1.712 -0.012,0.869 0,0Z" style="fill:rgb(204,204,205);fill-rule:nonzero;"/>
        </g>
        <g transform="matrix(1,0,0,1,121.401,109.574)">
            <path d="M0,0C3.125,0.188 3.125,0.188 6.125,2.188C6.5,5.688 6.5,5.688 6.125,9.188C2.675,11.488 1.179,11.619 -2.875,11.188C-4.875,8.188 -4.875,8.188 -4.563,4.563C-3.682,0.24 -3.682,0.24 0,0Z" style="fill:rgb(21,21,21);fill-rule:nonzero;"/>
        </g>
        <g transform="matrix(1,0,0,1,-59.474,75.7614)">
            <path d="M0,0C0.34,0.835 0.34,0.835 0.688,1.688C2.976,5.72 6.176,8.451 10,11C11.655,11.385 13.322,11.728 15,12C15.33,13.65 15.66,15.3 16,17C10.748,17.315 7.452,16.869 3,14C-0.145,11.02 -0.943,9.673 -1.313,5.313C-1,2 -1,2 0,0Z" style="fill:rgb(201,201,201);fill-rule:nonzero;"/>
        </g>
        <g transform="matrix(1,0,0,1,142.526,-18.2386)">
            <path d="M0,0L1,0C2.063,11.07 2.063,11.07 -0.418,15.574C-3.247,18.838 -5.937,21.402 -10,23L-14,23C-14.66,21.68 -15.32,20.36 -16,19C-14.987,18.636 -14.987,18.636 -13.953,18.266C-7.009,15.936 -7.009,15.936 -2,11C-1.094,7.36 -0.487,3.718 0,0Z" style="fill:rgb(198,198,197);fill-rule:nonzero;"/>
        </g>
        <g transform="matrix(1,0,0,1,-102.474,-18.2386)">
            <path d="M0,0C0.726,2.594 1.012,4.64 1.063,7.375C2.244,11.944 3.98,13.259 7.789,15.844C10.944,17.493 13.46,17.853 17,18C16.01,19.65 15.02,21.3 14,23C8.47,21.931 4.794,20.481 1.438,15.813C-1.244,11.272 -1.627,8.195 -1,3C-0.67,2.01 -0.34,1.02 0,0Z" style="fill:rgb(178,178,178);fill-rule:nonzero;"/>
        </g>
        <g transform="matrix(1,0,0,1,83.526,139.761)">
            <path d="M0,0C0.66,0.33 1.32,0.66 2,1C1.34,3.97 0.68,6.94 0,10C3.3,9.67 6.6,9.34 10,9C8,13 8,13 6,14C3.125,14.375 3.125,14.375 0,14C-2.438,11.938 -2.438,11.938 -4,9C-3.938,5.313 -3.938,5.313 -3,2C-2.01,1.34 -1.02,0.68 0,0Z" style="fill:rgb(18,18,18);fill-rule:nonzero;"/>
        </g>
        <g transform="matrix(1,0,0,1,108.526,124.761)">
            <path d="M0,0C3.86,1.573 6.401,3.751 9,7C9.625,10.563 9.625,10.563 9,14C6.563,16.125 6.563,16.125 4,18C3.121,20.635 3.121,20.635 3,23L2,23C1.813,20.188 1.813,20.188 2,17C2.979,15.98 3.979,14.979 5,14C5.753,11.675 5.753,11.675 5,9C3.191,6.478 1.157,4.228 -1,2C-0.67,1.34 -0.34,0.68 0,0Z" style="fill:rgb(43,43,43);fill-rule:nonzero;"/>
        </g>
        <g transform="matrix(1,0,0,1,74.026,173.636)">
            <path d="M0,0C2.5,0.125 2.5,0.125 3.5,1.125C3.541,3.125 3.543,5.125 3.5,7.125C0.625,7.75 0.625,7.75 -2.5,8.125C-3.16,7.465 -3.82,6.805 -4.5,6.125C-3.776,0.189 -3.776,0.189 0,0Z" style="fill:rgb(223,223,224);fill-rule:nonzero;"/>
        </g>
        <g transform="matrix(1,0,0,1,159.526,76.7614)">
            <path d="M0,0C2.625,0.375 2.625,0.375 5,1C5.625,3.375 5.625,3.375 6,6C5.34,6.66 4.68,7.32 4,8C1.375,7.625 1.375,7.625 -1,7C-1.625,4.625 -1.625,4.625 -2,2C-1.34,1.34 -0.68,0.68 0,0Z" style="fill:rgb(235,234,233);fill-rule:nonzero;"/>
        </g>
        <g transform="matrix(1,0,0,1,126.526,97.7614)">
            <path d="M0,0C3.606,1.53 5.986,3.687 8.75,6.438C9.549,7.22 10.348,8.002 11.172,8.809C13,11 13,11 13,14C9.097,12.413 6.665,9.866 3.75,6.875C2.858,5.965 1.966,5.055 1.047,4.117C0.371,3.419 -0.304,2.72 -1,2C-0.67,1.34 -0.34,0.68 0,0Z" style="fill:rgb(15,15,15);fill-rule:nonzero;"/>
        </g>
        <g transform="matrix(1,0,0,1,144.526,74.7614)">
            <path d="M0,0C0.66,0.99 1.32,1.98 2,3C4.437,3.364 4.437,3.364 7.125,3.188C8.49,3.147 8.49,3.147 9.883,3.105C10.581,3.071 11.28,3.036 12,3L12,7C2.27,7.92 2.27,7.92 -0.844,5.664C-2.188,4 -2.188,4 -4,1C-2,0 -2,0 0,0Z" style="fill:rgb(28,27,25);fill-rule:nonzero;"/>
        </g>
        <g transform="matrix(1,0,0,1,87.026,142.636)">
            <path d="M0,0C2.5,0.125 2.5,0.125 3.5,1.125C3.688,3.563 3.688,3.563 3.5,6.125C2.84,6.785 2.18,7.445 1.5,8.125C-1.125,7.75 -1.125,7.75 -3.5,7.125C-3.543,5.125 -3.541,3.125 -3.5,1.125C-2.5,0.125 -2.5,0.125 0,0Z" style="fill:rgb(234,234,235);fill-rule:nonzero;"/>
        </g>
        <g transform="matrix(1,0,0,1,79.526,173.761)">
            <path d="M0,0C0.66,0.33 1.32,0.66 2,1C1.406,7.302 1.406,7.302 -0.125,9.938C-3.031,11.584 -5.738,11.185 -9,11C-7,8 -7,8 -4.375,7.313C-3.591,7.209 -2.808,7.106 -2,7C-2.041,6.216 -2.083,5.433 -2.125,4.625C-2,2 -2,2 0,0Z" style="fill:rgb(28,28,28);fill-rule:nonzero;"/>
        </g>
        <g transform="matrix(1,0,0,1,-49.474,86.7614)">
            <path d="M0,0C9.73,-0.767 9.73,-0.767 12.844,1.113C14.188,2.5 14.188,2.5 16,5L4,5C4.33,3.68 4.66,2.36 5,1L0,1L0,0Z" style="fill:rgb(222,222,221);fill-rule:nonzero;"/>
        </g>
        <g transform="matrix(1,0,0,1,164.526,84.7614)">
            <path d="M0,0L0,3L-2,3L-2,32L-3,32C-3.33,21.77 -3.66,11.54 -4,1C-2,0 -2,0 0,0Z" style="fill:rgb(10,10,10);fill-rule:nonzero;"/>
        </g>
        <g transform="matrix(1,0,0,1,156.526,74.7614)">
            <path d="M0,0L2,0C3.097,3.29 2.8,4.713 2,8C3.32,8.99 4.64,9.98 6,11L4,11L4,13C2.125,12.813 2.125,12.813 0,12C-1.25,9.438 -1.25,9.438 -2,7L0,7L0,3C-0.66,2.67 -1.32,2.34 -2,2C-1.34,1.34 -0.68,0.68 0,0Z" style="fill:rgb(31,30,29);fill-rule:nonzero;"/>
        </g>
        <g transform="matrix(1,0,0,1,-21.474,35.7614)">
            <path d="M0,0C3.63,0.33 7.26,0.66 11,1C10.67,2.32 10.34,3.64 10,5L16,5L16,6C9.246,6.603 5.297,5.296 0,1L0,0Z" style="fill:rgb(189,189,189);fill-rule:nonzero;"/>
        </g>
        <g transform="matrix(1,0,0,1,88.526,139.761)">
            <path d="M0,0C3.161,1.37 3.993,1.989 6,5L6,9C4.35,9.33 2.7,9.66 1,10L1,4C-0.32,3.34 -1.64,2.68 -3,2L0,2L0,0Z" style="fill:rgb(45,45,46);fill-rule:nonzero;"/>
        </g>
        <g transform="matrix(1,0,0,1,-95.474,34.7614)">
            <path d="M0,0C1.32,0.66 2.64,1.32 4,2C4.33,1.67 4.66,1.34 5,1C7.671,0.859 10.324,0.958 13,1C12.67,1.99 12.34,2.98 12,4C10.209,4.054 8.417,4.093 6.625,4.125C5.627,4.148 4.63,4.171 3.602,4.195C1,4 1,4 -1,2C-0.67,1.34 -0.34,0.68 0,0Z" style="fill:rgb(189,189,189);fill-rule:nonzero;"/>
        </g>
        <g transform="matrix(1,0,0,1,146.526,15.7614)">
            <path d="M0,0L1,0C1.445,6.952 1.673,11.597 -3,17C-3.66,16.67 -4.32,16.34 -5,16C-4.499,13.394 -3.742,11.505 -2.5,9.125C-1.002,6.005 -0.407,3.417 0,0Z" style="fill:rgb(178,178,178);fill-rule:nonzero;"/>
        </g>
        <g transform="matrix(1,0,0,1,-102.474,-18.2386)">
            <path d="M0,0C0.714,2.548 1.056,4.772 1.25,7.438C2.151,11.715 3.716,13.221 7,16C5.02,16.99 5.02,16.99 3,18C-0.594,12.608 -1.539,9.473 -1,3C-0.67,2.01 -0.34,1.02 0,0Z" style="fill:rgb(167,167,167);fill-rule:nonzero;"/>
        </g>
        <g transform="matrix(1,0,0,1,122.526,34.7614)">
            <path d="M0,0L10,0C9.67,0.99 9.34,1.98 9,3C9.66,3.33 10.32,3.66 11,4C10,5 10,5 6.625,5.375C5.429,5.251 4.233,5.128 3,5C1.063,2.5 1.063,2.5 0,0Z" style="fill:rgb(192,192,192);fill-rule:nonzero;"/>
        </g>
        <g transform="matrix(1,0,0,1,77.526,85.7614)">
            <path d="M0,0C2.97,0.33 5.94,0.66 9,1C7.02,1.99 7.02,1.99 5,3C3.745,3.699 2.494,4.407 1.25,5.125C0.178,5.744 -0.895,6.363 -2,7C-1.125,2.25 -1.125,2.25 0,0Z" style="fill:rgb(225,225,225);fill-rule:nonzero;"/>
        </g>
        <g transform="matrix(1,0,0,1,130.526,53.7614)">
            <path d="M0,0L1,0C1.054,2.062 1.093,4.125 1.125,6.188C1.148,7.336 1.171,8.485 1.195,9.668C1.005,12.917 0.394,15.087 -1,18C-1.99,17.34 -2.98,16.68 -4,16C-2.125,12.125 -2.125,12.125 -1,11C-0.766,9.151 -0.587,7.295 -0.438,5.438C-0.354,4.426 -0.27,3.414 -0.184,2.371C-0.123,1.589 -0.062,0.806 0,0Z" style="fill:rgb(185,185,186);fill-rule:nonzero;"/>
        </g>
        <g transform="matrix(1,0,0,1,1.52603,-109.239)">
            <path d="M0,0L1,0L1,25C0.01,24.67 -0.98,24.34 -2,24C-1.67,23.34 -1.34,22.68 -1,22C-0.848,20.334 -0.751,18.663 -0.684,16.992C-0.642,16.006 -0.6,15.02 -0.557,14.004C-0.517,12.971 -0.478,11.939 -0.438,10.875C-0.394,9.835 -0.351,8.794 -0.307,7.723C-0.2,5.149 -0.098,2.574 0,0Z" style="fill:rgb(191,191,191);fill-rule:nonzero;"/>
        </g>
        <g transform="matrix(1,0,0,1,-59.474,75.7614)">
            <path d="M0,0C1.523,2.937 2.801,5.917 4,9C2.063,9.563 2.063,9.563 0,10C-1,9 -1,9 -1.125,5.563C-1,2 -1,2 0,0Z" style="fill:rgb(172,171,172);fill-rule:nonzero;"/>
        </g>
        <g transform="matrix(1,0,0,1,83.526,139.761)">
            <path d="M0,0C0.66,0.33 1.32,0.66 2,1C1.34,3.64 0.68,6.28 0,9C-0.66,7.68 -1.32,6.36 -2,5C-2.66,6.32 -3.32,7.64 -4,9C-3.688,5.625 -3.688,5.625 -3,2C-2.01,1.34 -1.02,0.68 0,0Z" style="fill:rgb(49,49,49);fill-rule:nonzero;"/>
        </g>
        <g transform="matrix(1,0,0,1,166.526,75.7614)">
            <path d="M0,0C2,2 2,2 2.25,4.938C2,8 2,8 0,11L-2,11C-2.33,10.01 -2.66,9.02 -3,8C-2.031,6.315 -1.03,4.648 0,3L0,0Z" style="fill:rgb(32,32,32);fill-rule:nonzero;"/>
        </g>
        <g transform="matrix(1,0,0,1,72.526,170.761)">
            <path d="M0,0L0,2C0.99,2.33 1.98,2.66 3,3C0.69,3.66 -1.62,4.32 -4,5C-4.33,6.65 -4.66,8.3 -5,10L-6,10C-6.337,6.297 -6.477,4.605 -4.125,1.625C-2,0 -2,0 0,0Z" style="fill:rgb(48,48,49);fill-rule:nonzero;"/>
        </g>
        <g transform="matrix(1,0,0,1,-16.474,-48.2386)">
            <path d="M0,0C0.66,0.33 1.32,0.66 2,1C-4.897,8.842 -4.897,8.842 -9.5,9.5C-10.325,9.335 -11.15,9.17 -12,9L-12,8C-10.67,7.66 -10.67,7.66 -9.313,7.313C-5.552,5.822 -3.678,3.984 -1,1C-0.67,0.67 -0.34,0.34 0,0Z" style="fill:rgb(49,49,49);fill-rule:nonzero;"/>
        </g>
        <g transform="matrix(1,0,0,1,129.526,58.7614)">
            <path d="M0,0L1,0C1.353,3.794 1.284,5.559 -0.813,8.813C-3,11 -3,11 -6,12C-4,8 -2,4 0,0Z" style="fill:rgb(213,213,213);fill-rule:nonzero;"/>
        </g>
        <g transform="matrix(1,0,0,1,95.526,31.7614)">
            <path d="M0,0C0.33,0.99 0.66,1.98 1,3C0.01,3.99 -0.98,4.98 -2,6C-1.01,6.66 -0.02,7.32 1,8C-1.31,7.67 -3.62,7.34 -6,7L-6,5C-5.196,4.732 -4.391,4.464 -3.563,4.188C-2.717,3.796 -1.871,3.404 -1,3C-0.67,2.01 -0.34,1.02 0,0Z" style="fill:rgb(49,49,47);fill-rule:nonzero;"/>
        </g>
        <g transform="matrix(1,0,0,1,-106.474,14.7614)">
            <path d="M0,0L1,0L1,11C1.99,11.33 2.98,11.66 4,12C3.34,13.32 2.68,14.64 2,16C-0.143,12.523 -0.213,9.788 -0.125,5.75C-0.107,4.672 -0.089,3.595 -0.07,2.484C-0.047,1.665 -0.024,0.845 0,0Z" style="fill:rgb(178,178,178);fill-rule:nonzero;"/>
        </g>
        <g transform="matrix(1,0,0,1,141.526,13.7614)">
            <path d="M0,0C-2,2 -2,2 -4.375,2.875C-7.301,4.129 -8.887,5.653 -11,8C-11,5.188 -11,5.188 -10,2C-6.875,0.063 -3.438,-1.719 0,0Z" style="fill:rgb(206,206,206);fill-rule:nonzero;"/>
        </g>
        <g transform="matrix(1,0,0,1,-59.474,-23.2386)">
            <path d="M0,0C-0.866,0.309 -0.866,0.309 -1.75,0.625C-4.803,2.491 -6.114,5.008 -8,8L-9,8C-9.222,5.259 -9.348,3.56 -7.875,1.188C-5.225,-0.491 -3.068,-0.205 0,0Z" style="fill:rgb(63,63,63);fill-rule:nonzero;"/>
        </g>
        <g transform="matrix(1,0,0,1,126.526,97.7614)">
            <path d="M0,0C3.161,1.37 3.993,1.989 6,5C5.01,5.33 4.02,5.66 3,6C1.68,4.35 0.36,2.7 -1,1C-0.67,0.67 -0.34,0.34 0,0Z" style="fill:rgb(21,21,22);fill-rule:nonzero;"/>
        </g>
        <g transform="matrix(1,0,0,1,156.526,77.7614)">
            <path d="M0,0L0,4C-4.455,3.01 -4.455,3.01 -9,2L-9,1C-2.25,0 -2.25,0 0,0Z" style="fill:rgb(12,11,9);fill-rule:nonzero;"/>
        </g>
        <g transform="matrix(1,0,0,1,-13.474,36.7614)">
            <path d="M0,0C0.99,0.33 1.98,0.66 3,1C2.67,1.99 2.34,2.98 2,4L8,4L8,5L0,5C-0.563,3.063 -0.563,3.063 -1,1C-0.67,0.67 -0.34,0.34 0,0Z" style="fill:rgb(171,171,171);fill-rule:nonzero;"/>
        </g>
        <g transform="matrix(1,0,0,1,79.526,173.761)">
            <path d="M0,0C0.66,0.33 1.32,0.66 2,1C1.67,3.31 1.34,5.62 1,8C0.01,7.34 -0.98,6.68 -2,6C-1.494,3.831 -1,2 0,0Z" style="fill:rgb(68,68,69);fill-rule:nonzero;"/>
        </g>
        <g transform="matrix(1,0,0,1,62.526,36.7614)">
            <path d="M0,0C-3.75,3 -3.75,3 -6,3L-6,1C-7.32,0.67 -8.64,0.34 -10,0C-3.375,-1.125 -3.375,-1.125 0,0Z" style="fill:rgb(185,185,187);fill-rule:nonzero;"/>
        </g>
        <g transform="matrix(1,0,0,1,-42.474,-122.239)">
            <path d="M0,0C1,3 1,3 -0.25,5.625C-2,8 -2,8 -5,9C-3.751,5.541 -2.325,2.853 0,0Z" style="fill:rgb(39,39,40);fill-rule:nonzero;"/>
        </g>
        <g transform="matrix(1,0,0,1,157.526,82.7614)">
            <path d="M0,0C2.475,0.99 2.475,0.99 5,2C4.01,2.495 4.01,2.495 3,3L3,5C1.063,4.625 1.063,4.625 -1,4C-1.33,3.34 -1.66,2.68 -2,2L0,2L0,0Z" style="fill:rgb(43,41,42);fill-rule:nonzero;"/>
        </g>
    </g>
</svg>
