<svg xmlns="http://www.w3.org/2000/svg" width="24" height="24" viewBox="0 0 24 24" fill="none" stroke="#222222" stroke-width="2" stroke-linecap="round" stroke-linejoin="round" class="feather feather-youtube">
    <path d="M22.54 6.42a2.78 2.78 0 0 0-1.94-1.94C18.8 4 12 4 12 4s-6.8 0-8.6.48A2.78 2.78 0 0 0 1.46 6.42C1 8.3 1 12 1 12s0 3.7.46 5.58a2.78 2.78 0 0 0 1.94 1.94c1.8.48 8.6.48 8.6.48s6.8 0 8.6-.48a2.78 2.78 0 0 0 1.94-1.94C23 15.7 23 12 23 12s0-3.7-.46-5.58z"></path>
    <polygon points="10 15 15 12 10 9 10 15"></polygon>
</svg>
